<svg xmlns="http://www.w3.org/2000/svg" xmlns:xlink="http://www.w3.org/1999/xlink" xmlns:lucid="lucid" width="1700.36" height="1092.5"><g transform="translate(-39 -7.499498624493157)" lucid:page-tab-id="0_0"><path d="M0 0h1870.87v1322.83H0z" fill="#fff"/><path d="M199.75 79.75c0 10.9-8.84 19.75-19.75 19.75-10.9 0-19.75-8.84-19.75-19.75C160.25 68.85 169.1 60 180 60c10.9 0 19.75 8.84 19.75 19.75z" stroke="#5e5e5e" stroke-width="3" fill="#fff"/><path d="M180 99.5v49.3c0 3.3 1.44 8.27 3.2 11.07L220 218m-40-63.2L140 218m0-98.75h80" stroke="#5e5e5e" stroke-width="3" fill="none"/><path d="M140 66c0-3.3 2.7-6 6-6h68c3.3 0 6 2.7 6 6v168c0 3.3-2.7 6-6 6h-68c-3.3 0-6-2.7-6-6z" fill="none"/><use xlink:href="#a" transform="matrix(1,0,0,1,60,218) translate(51.63580246913581 17.77777777777778)"/><path d="M199.75 359.75c0 10.9-8.84 19.75-19.75 19.75-10.9 0-19.75-8.84-19.75-19.75 0-10.9 8.84-19.75 19.75-19.75 10.9 0 19.75 8.84 19.75 19.75z" stroke="#5e5e5e" stroke-width="3" fill="#fff"/><path d="M180 379.5v49.3c0 3.3 1.44 8.27 3.2 11.07L220 498m-40-63.2L140 498m0-98.75h80" stroke="#5e5e5e" stroke-width="3" fill="none"/><path d="M140 346c0-3.3 2.7-6 6-6h68c3.3 0 6 2.7 6 6v168c0 3.3-2.7 6-6 6h-68c-3.3 0-6-2.7-6-6z" fill="none"/><use xlink:href="#b" transform="matrix(1,0,0,1,60,498) translate(85.52469135802468 17.77777777777778)"/><path d="M1499.75 79.75c0 10.9-8.84 19.75-19.75 19.75-10.9 0-19.75-8.84-19.75-19.75 0-10.9 8.84-19.75 19.75-19.75 10.9 0 19.75 8.84 19.75 19.75z" stroke="#5e5e5e" stroke-width="3" fill="#fff"/><path d="M1480 99.5v49.3c0 3.3 1.44 8.27 3.2 11.07L1520 218m-40-63.2l-40 63.2m0-98.75h80" stroke="#5e5e5e" stroke-width="3" fill="none"/><path d="M1440 66c0-3.3 2.7-6 6-6h68c3.3 0 6 2.7 6 6v168c0 3.3-2.7 6-6 6h-68c-3.3 0-6-2.7-6-6z" fill="none"/><use xlink:href="#c" transform="matrix(1,0,0,1,1360,218) translate(62.09876543209875 17.77777777777778)"/><path d="M1359.75 359.75c0 10.9-8.84 19.75-19.75 19.75-10.9 0-19.75-8.84-19.75-19.75 0-10.9 8.84-19.75 19.75-19.75 10.9 0 19.75 8.84 19.75 19.75z" stroke="#5e5e5e" stroke-width="3" fill="#fff"/><path d="M1340 379.5v49.3c0 3.3 1.44 8.27 3.2 11.07L1380 498m-40-63.2l-40 63.2m0-98.75h80" stroke="#5e5e5e" stroke-width="3" fill="none"/><path d="M1300 346c0-3.3 2.7-6 6-6h68c3.3 0 6 2.7 6 6v168c0 3.3-2.7 6-6 6h-68c-3.3 0-6-2.7-6-6z" fill="none"/><use xlink:href="#d" transform="matrix(1,0,0,1,1220,498) translate(18.858024691358025 17.77777777777778)"/><use xlink:href="#e" transform="matrix(1,0,0,1,1220,498) translate(108.7962962962963 17.77777777777778)"/><use xlink:href="#f" transform="matrix(1,0,0,1,1220,498) translate(139.6604938271605 17.77777777777778)"/><path d="M1639.75 359.75c0 10.9-8.84 19.75-19.75 19.75-10.9 0-19.75-8.84-19.75-19.75 0-10.9 8.84-19.75 19.75-19.75 10.9 0 19.75 8.84 19.75 19.75z" stroke="#5e5e5e" stroke-width="3" fill="#fff"/><path d="M1620 379.5v49.3c0 3.3 1.44 8.27 3.2 11.07L1660 498m-40-63.2l-40 63.2m0-98.75h80" stroke="#5e5e5e" stroke-width="3" fill="none"/><path d="M1580 346c0-3.3 2.7-6 6-6h68c3.3 0 6 2.7 6 6v168c0 3.3-2.7 6-6 6h-68c-3.3 0-6-2.7-6-6z" fill="none"/><use xlink:href="#d" transform="matrix(1,0,0,1,1500,498) translate(22.56172839506172 17.77777777777778)"/><use xlink:href="#e" transform="matrix(1,0,0,1,1500,498) translate(112.5 17.77777777777778)"/><use xlink:href="#g" transform="matrix(1,0,0,1,1500,498) translate(143.3641975308642 17.77777777777778)"/><path d="M1340 337.5V123.75c0-3.3 2.7-6 6-6h75.5" stroke="#5e5e5e" stroke-width="2" fill="none"/><path d="M1341 338.6l-.92-.1-1.08.03v-1.06h2z" fill="#5e5e5e"/><path d="M1436.76 117.75l-14.26 4.64v-9.3z" stroke="#5e5e5e" stroke-width="2" fill="#fff"/><path d="M1620 337.5V124.67c0-3.32-2.7-6-6-6h-75.5" stroke="#5e5e5e" stroke-width="2" fill="none"/><path d="M1621 338.6l-.92-.1-1.08.03v-1.06h2z" fill="#5e5e5e"/><path d="M1523.24 118.67l14.26-4.64v9.27z" stroke="#5e5e5e" stroke-width="2" fill="#fff"/><path d="M840 120c0 33.14-35.82 60-80 60s-80-26.86-80-60 35.82-60 80-60 80 26.86 80 60z" stroke="#5e5e5e" stroke-width="3" fill="#fff"/><use xlink:href="#h" transform="matrix(1,0,0,1,680,60) translate(28.054999999999993 51.9)"/><use xlink:href="#i" transform="matrix(1,0,0,1,680,60) translate(111.95500000000001 51.9)"/><use xlink:href="#j" transform="matrix(1,0,0,1,680,60) translate(28.60499999999999 73.5)"/><path d="M620 300c0 33.14-35.82 60-80 60s-80-26.86-80-60 35.82-60 80-60 80 26.86 80 60z" stroke="#5e5e5e" stroke-width="3" fill="#fff"/><use xlink:href="#k" transform="matrix(1,0,0,1,460,240) translate(33.57999999999999 51.9)"/><use xlink:href="#i" transform="matrix(1,0,0,1,460,240) translate(106.43 51.9)"/><use xlink:href="#l" transform="matrix(1,0,0,1,460,240) translate(50.004999999999995 73.5)"/><path d="M1040 300c0 33.14-35.82 60-80 60s-80-26.86-80-60 35.82-60 80-60 80 26.86 80 60z" stroke="#5e5e5e" stroke-width="3" fill="#fff"/><use xlink:href="#k" transform="matrix(1,0,0,1,880,240) translate(33.57999999999999 51.9)"/><use xlink:href="#i" transform="matrix(1,0,0,1,880,240) translate(106.43 51.9)"/><use xlink:href="#m" transform="matrix(1,0,0,1,880,240) translate(47.004999999999995 73.5)"/><path d="M691.53 154.5h-92.1c-3.3 0-6 2.67-6 6v74.58" stroke="#5e5e5e" stroke-width="2" fill="none"/><path d="M693.42 155.5h-1.9v-2h.12z" fill="#5e5e5e"/><path d="M593.44 250.35l-4.64-14.27h9.27z" stroke="#5e5e5e" stroke-width="2" fill="#5e5e5e"/><path d="M830.33 152.37h86.06c3.3 0 6 2.7 6 6v68.57" stroke="#5e5e5e" stroke-width="2" fill="none"/><path d="M830.35 153.37h-1.9l.88-1 .77-1h.25z" fill="#5e5e5e"/><path d="M922.4 242.2l-4.64-14.26h9.27z" stroke="#5e5e5e" stroke-width="2" fill="#5e5e5e"/><path d="M1480 57.5v-33c0-3.3-2.7-6-6-6H966c-3.3 0-6 2.7-6 6v213" stroke="#5e5e5e" stroke-width="2" fill="none"/><path d="M1481 58.6l-.92-.1-1.08.03v-1.06h2zM961 238.53l-.98-.03H959v-1.03h2z" fill="#5e5e5e"/><path d="M1480 57.5v-33c0-3.3-2.7-6-6-6H546c-3.3 0-6 2.7-6 6v213" stroke="#5e5e5e" stroke-width="2" fill="none"/><path d="M1481 58.6l-.92-.1-1.08.03v-1.06h2zM541 238.53l-.98-.03H539v-1.03h2z" fill="#5e5e5e"/><path d="M840 420c0 33.14-35.82 60-80 60s-80-26.86-80-60 35.82-60 80-60 80 26.86 80 60z" stroke="#5e5e5e" stroke-width="3" fill="#fff"/><use xlink:href="#n" transform="matrix(1,0,0,1,680,360) translate(18.054999999999986 51.9)"/><use xlink:href="#i" transform="matrix(1,0,0,1,680,360) translate(121.955 51.9)"/><use xlink:href="#j" transform="matrix(1,0,0,1,680,360) translate(28.60499999999999 73.5)"/><path d="M760 182.5V340" stroke="#5e5e5e" stroke-width="2" fill="none"/><path d="M759.98 181.5H761v1.03h-2v-1.06z" fill="#5e5e5e"/><path d="M760 355.26L755.36 341h9.28z" stroke="#5e5e5e" stroke-width="2" fill="#5e5e5e"/><path d="M221 118.67h456.54" stroke="#5e5e5e" stroke-width="2" fill="none"/><path d="M221.03 119.67H220v-1.92h-3v-.08h4.03zM678.5 119.67h-1v-2h1.07z" fill="#5e5e5e"/><path d="M221 118.67h222.25c3.3 0 6 2.68 6 6V414c0 3.3 2.7 6 6 6H677.5" stroke="#5e5e5e" stroke-width="2" fill="none"/><path d="M221.03 119.67H220v-1.92h-3v-.08h4.03zM678.5 419.98v.43l.02.6h-1.05v-2h1.06z" fill="#5e5e5e"/><path d="M1040 778.5c0 33.14-35.82 60-80 60s-80-26.86-80-60 35.82-60 80-60 80 26.86 80 60z" stroke="#5e5e5e" stroke-width="3" fill="#fff"/><use xlink:href="#o" transform="matrix(1,0,0,1,880,718.4999871690889) translate(23.07999999999999 51.9)"/><use xlink:href="#p" transform="matrix(1,0,0,1,880,718.4999871690889) translate(31.529999999999994 73.5)"/><use xlink:href="#q" transform="matrix(1,0,0,1,880,718.4999871690889) translate(56.529999999999994 73.5)"/><path d="M1220 778.5c0 33.14-35.82 60-80 60s-80-26.86-80-60 35.82-60 80-60 80 26.86 80 60z" stroke="#5e5e5e" stroke-width="3" fill="#fff"/><use xlink:href="#o" transform="matrix(1,0,0,1,1060,718.4999871690889) translate(23.07999999999999 51.9)"/><use xlink:href="#p" transform="matrix(1,0,0,1,1060,718.4999871690889) translate(25.555 73.5)"/><use xlink:href="#r" transform="matrix(1,0,0,1,1060,718.4999871690889) translate(50.555 73.5)"/><path d="M1400 778.5c0 33.14-35.82 60-80 60s-80-26.86-80-60 35.82-60 80-60 80 26.86 80 60z" stroke="#5e5e5e" stroke-width="3" fill="#fff"/><use xlink:href="#o" transform="matrix(1,0,0,1,1240,718.4999871690889) translate(23.07999999999999 51.9)"/><use xlink:href="#p" transform="matrix(1,0,0,1,1240,718.4999871690889) translate(27.07999999999999 73.5)"/><use xlink:href="#s" transform="matrix(1,0,0,1,1240,718.4999871690889) translate(52.07999999999999 73.5)"/><path d="M960 362.5v170.75c0 3.3 2.7 6 6 6h168c3.3 0 6 2.7 6 6V698.5" stroke="#5e5e5e" stroke-width="2" fill="none"/><path d="M959.98 361.5H961v1.03h-2v-1.06z" fill="#5e5e5e"/><path d="M1140 713.76l-4.64-14.26h9.28z" stroke="#5e5e5e" stroke-width="2" fill="#5e5e5e"/><path d="M960 362.5v170.75c0 3.3 2.7 6 6 6h348c3.3 0 6 2.7 6 6V698.5" stroke="#5e5e5e" stroke-width="2" fill="none"/><path d="M959.98 361.5H961v1.03h-2v-1.06z" fill="#5e5e5e"/><path d="M1320 713.76l-4.64-14.26h9.28z" stroke="#5e5e5e" stroke-width="2" fill="#5e5e5e"/><path d="M960 362.5v336" stroke="#5e5e5e" stroke-width="2" fill="none"/><path d="M959.98 361.5H961v1.03h-2v-1.06z" fill="#5e5e5e"/><path d="M960 713.76l-4.64-14.26h9.28z" stroke="#5e5e5e" stroke-width="2" fill="#5e5e5e"/><path d="M1040 1020c0 33.14-35.82 60-80 60s-80-26.86-80-60 35.82-60 80-60 80 26.86 80 60z" stroke="#5e5e5e" stroke-width="3" fill="#fff"/><use xlink:href="#t" transform="matrix(1,0,0,1,880,960) translate(18.57999999999999 51.9)"/><use xlink:href="#p" transform="matrix(1,0,0,1,880,960) translate(31.529999999999994 73.5)"/><use xlink:href="#q" transform="matrix(1,0,0,1,880,960) translate(56.529999999999994 73.5)"/><path d="M1220 1020c0 33.14-35.82 60-80 60s-80-26.86-80-60 35.82-60 80-60 80 26.86 80 60z" stroke="#5e5e5e" stroke-width="3" fill="#fff"/><use xlink:href="#t" transform="matrix(1,0,0,1,1060,960) translate(18.57999999999999 51.9)"/><use xlink:href="#p" transform="matrix(1,0,0,1,1060,960) translate(25.555 73.5)"/><use xlink:href="#r" transform="matrix(1,0,0,1,1060,960) translate(50.555 73.5)"/><path d="M1400 1020c0 33.14-35.82 60-80 60s-80-26.86-80-60 35.82-60 80-60 80 26.86 80 60z" stroke="#5e5e5e" stroke-width="3" fill="#fff"/><use xlink:href="#t" transform="matrix(1,0,0,1,1240,960) translate(18.57999999999999 51.9)"/><use xlink:href="#p" transform="matrix(1,0,0,1,1240,960) translate(27.07999999999999 73.5)"/><use xlink:href="#s" transform="matrix(1,0,0,1,1240,960) translate(52.07999999999999 73.5)"/><path d="M960 841v99" stroke="#5e5e5e" stroke-width="2" fill="none"/><path d="M959.98 840H961v1.03h-2v-1.06z" fill="#5e5e5e"/><path d="M960 955.26L955.36 941h9.28z" stroke="#5e5e5e" stroke-width="2" fill="#5e5e5e"/><path d="M1140 841v99" stroke="#5e5e5e" stroke-width="2" fill="none"/><path d="M1139.98 840h1.02v1.03h-2v-1.06z" fill="#5e5e5e"/><path d="M1140 955.26l-4.64-14.26h9.28z" stroke="#5e5e5e" stroke-width="2" fill="#5e5e5e"/><path d="M1320 841v99" stroke="#5e5e5e" stroke-width="2" fill="none"/><path d="M1319.98 840h1.02v1.03h-2v-1.06z" fill="#5e5e5e"/><path d="M1320 955.26l-4.64-14.26h9.28z" stroke="#5e5e5e" stroke-width="2" fill="#5e5e5e"/><path d="M1337.5 428.9H1196c-3.3 0-6-2.68-6-6V306c0-3.3-2.7-6-6-6h-141.5M1337.47 428.9h4.03" stroke="#5e5e5e" stroke-width="2" fill="none"/><path d="M1042.53 301h-1.06l.03-.98v-.43l-.02-.6h1.05z" fill="#5e5e5e"/><path d="M460 640c0 33.14-35.82 60-80 60s-80-26.86-80-60 35.82-60 80-60 80 26.86 80 60z" stroke="#5e5e5e" stroke-width="3" fill="#fff"/><use xlink:href="#u" transform="matrix(1,0,0,1,300,580) translate(11.104999999999999 63.15)"/><use xlink:href="#l" transform="matrix(1,0,0,1,300,580) translate(88.90500000000002 63.15)"/><path d="M457.5 300H386c-3.3 0-6 2.7-6 6v254" stroke="#5e5e5e" stroke-width="2" fill="none"/><path d="M458.5 299.98v.43l.02.6h-1.05v-2h1.06z" fill="#5e5e5e"/><path d="M380 575.26L375.36 561h9.28z" stroke="#5e5e5e" stroke-width="2" fill="#5e5e5e"/><path d="M462.5 640H634c3.3 0 6-2.7 6-6V306c0-3.3 2.7-6 6-6h214" stroke="#5e5e5e" stroke-width="2" fill="none"/><path d="M462.53 641h-1.06l.03-.98v-.43l-.02-.6h1.05z" fill="#5e5e5e"/><path d="M875.26 300L861 304.64v-9.28z" stroke="#5e5e5e" stroke-width="2" fill="#5e5e5e"/><path d="M221 397.75h32.25c3.3 0 6 2.7 6 6V634c0 3.3 2.7 6 6 6h32.25" stroke="#5e5e5e" stroke-width="2" fill="none"/><path d="M221.03 398.75H220v-1h-3v-1h4.03zM298.5 639.98v.43l.02.6h-1.05v-2h1.06z" fill="#5e5e5e"/><path d="M680 840c0 33.14-35.82 60-80 60s-80-26.86-80-60 35.82-60 80-60 80 26.86 80 60z" stroke="#5e5e5e" stroke-width="3" fill="#fff"/><g><use xlink:href="#v" transform="matrix(1,0,0,1,520,780) translate(19.57999999999999 51.9)"/><use xlink:href="#p" transform="matrix(1,0,0,1,520,780) translate(68.47999999999999 51.9)"/><use xlink:href="#w" transform="matrix(1,0,0,1,520,780) translate(93.47999999999999 51.9)"/><use xlink:href="#x" transform="matrix(1,0,0,1,520,780) translate(52.07999999999999 73.5)"/></g><path d="M380 702.5V734c0 3.3 2.7 6 6 6h208c3.3 0 6 2.7 6 6v14" stroke="#5e5e5e" stroke-width="2" fill="none"/><path d="M379.98 701.5H381v1.03h-2v-1.06z" fill="#5e5e5e"/><path d="M600 775.26L595.36 761h9.28z" stroke="#5e5e5e" stroke-width="2" fill="#5e5e5e"/><path d="M680 1020c0 33.14-35.82 60-80 60s-80-26.86-80-60 35.82-60 80-60 80 26.86 80 60z" stroke="#5e5e5e" stroke-width="3" fill="#fff"/><g><use xlink:href="#y" transform="matrix(1,0,0,1,520,960) translate(32.60499999999999 51.9)"/><use xlink:href="#i" transform="matrix(1,0,0,1,520,960) translate(107.405 51.9)"/><use xlink:href="#z" transform="matrix(1,0,0,1,520,960) translate(26.104999999999997 73.5)"/><use xlink:href="#x" transform="matrix(1,0,0,1,520,960) translate(78.055 73.5)"/></g><path d="M600 902.5V940" stroke="#5e5e5e" stroke-width="2" fill="none"/><path d="M599.98 901.5H601v1.03h-2v-1.06z" fill="#5e5e5e"/><path d="M600 955.26L595.36 941h9.28z" stroke="#5e5e5e" stroke-width="2" fill="#5e5e5e"/><path d="M300 840c0 33.14-35.82 60-80 60s-80-26.86-80-60 35.82-60 80-60 80 26.86 80 60z" stroke="#5e5e5e" stroke-width="3" fill="#fff"/><g><use xlink:href="#A" transform="matrix(1,0,0,1,140,780) translate(31.054999999999993 51.9)"/><use xlink:href="#B" transform="matrix(1,0,0,1,140,780) translate(108.95500000000001 51.9)"/><use xlink:href="#C" transform="matrix(1,0,0,1,140,780) translate(42.605 73.5)"/></g><path d="M313.64 676.73v44.38c0 3.33-2.7 6-6 6H226c-3.3 0-6 2.7-6 6V760" stroke="#5e5e5e" stroke-width="2" fill="none"/><path d="M313.65 675.74l1 .98v.04h-2v-2.15z" fill="#5e5e5e"/><path d="M220 775.26L215.36 761h9.28z" stroke="#5e5e5e" stroke-width="2" fill="#5e5e5e"/><path d="M913.45 351.47v15c0 3.3-2.7 6-6 6H876c-3.3 0-6 2.68-6 6V914c0 3.3-2.7 6-6 6H329.5c-3.3 0-6-2.7-6-6v-70.5c0-1.93-1.57-3.5-3.5-3.5" stroke="#5e5e5e" stroke-width="2" fill="none"/><path d="M914.45 350.97v.52h-2v-1.54z" fill="#5e5e5e"/><path d="M304.74 840l14.26-4.64v9.28z" stroke="#5e5e5e" stroke-width="2" fill="#5e5e5e"/><path d="M139 117.75H56c-3.3 0-6 2.7-6 6V834c0 3.3 2.7 6 6 6h81.5" stroke="#5e5e5e" stroke-width="2" fill="none"/><path d="M143 117.75h-3v1h-1.03v-2H143zM138.5 839.98v.43l.02.6h-1.05v-2h1.06z" fill="#5e5e5e"/><defs><path fill="#333" d="M205 0l-28-72H64L36 0H1l101-248h38L239 0h-34zm-38-99l-47-123c-12 45-31 82-46 123h93" id="D"/><path fill="#333" d="M85-194c31 0 48 13 60 33l-1-100h32l1 261h-30c-2-10 0-23-3-31C134-8 116 4 85 4 32 4 16-35 15-94c0-66 23-100 70-100zm9 24c-40 0-46 34-46 75 0 40 6 74 45 74 42 0 51-32 51-76 0-42-9-74-50-73" id="E"/><path fill="#333" d="M210-169c-67 3-38 105-44 169h-31v-121c0-29-5-50-35-48C34-165 62-65 56 0H25l-1-190h30c1 10-1 24 2 32 10-44 99-50 107 0 11-21 27-35 58-36 85-2 47 119 55 194h-31v-121c0-29-5-49-35-48" id="F"/><path fill="#333" d="M24-231v-30h32v30H24zM24 0v-190h32V0H24" id="G"/><path fill="#333" d="M117-194c89-4 53 116 60 194h-32v-121c0-31-8-49-39-48C34-167 62-67 57 0H25l-1-190h30c1 10-1 24 2 32 11-22 29-35 61-36" id="H"/><path fill="#333" d="M135-143c-3-34-86-38-87 0 15 53 115 12 119 90S17 21 10-45l28-5c4 36 97 45 98 0-10-56-113-15-118-90-4-57 82-63 122-42 12 7 21 19 24 35" id="I"/><path fill="#333" d="M59-47c-2 24 18 29 38 22v24C64 9 27 4 27-40v-127H5v-23h24l9-43h21v43h35v23H59v120" id="J"/><path fill="#333" d="M114-163C36-179 61-72 57 0H25l-1-190h30c1 12-1 29 2 39 6-27 23-49 58-41v29" id="K"/><path fill="#333" d="M141-36C126-15 110 5 73 4 37 3 15-17 15-53c-1-64 63-63 125-63 3-35-9-54-41-54-24 1-41 7-42 31l-33-3c5-37 33-52 76-52 45 0 72 20 72 64v82c-1 20 7 32 28 27v20c-31 9-61-2-59-35zM48-53c0 20 12 33 32 33 41-3 63-29 60-74-43 2-92-5-92 41" id="L"/><path fill="#333" d="M100-194c62-1 85 37 85 99 1 63-27 99-86 99S16-35 15-95c0-66 28-99 85-99zM99-20c44 1 53-31 53-75 0-43-8-75-51-75s-53 32-53 75 10 74 51 75" id="M"/><g id="a"><use transform="matrix(0.06172839506172839,0,0,0.06172839506172839,0,0)" xlink:href="#D"/><use transform="matrix(0.06172839506172839,0,0,0.06172839506172839,14.814814814814813,0)" xlink:href="#E"/><use transform="matrix(0.06172839506172839,0,0,0.06172839506172839,27.160493827160494,0)" xlink:href="#F"/><use transform="matrix(0.06172839506172839,0,0,0.06172839506172839,45.61728395061728,0)" xlink:href="#G"/><use transform="matrix(0.06172839506172839,0,0,0.06172839506172839,50.49382716049382,0)" xlink:href="#H"/><use transform="matrix(0.06172839506172839,0,0,0.06172839506172839,62.8395061728395,0)" xlink:href="#G"/><use transform="matrix(0.06172839506172839,0,0,0.06172839506172839,67.71604938271604,0)" xlink:href="#I"/><use transform="matrix(0.06172839506172839,0,0,0.06172839506172839,78.82716049382715,0)" xlink:href="#J"/><use transform="matrix(0.06172839506172839,0,0,0.06172839506172839,84.99999999999999,0)" xlink:href="#K"/><use transform="matrix(0.06172839506172839,0,0,0.06172839506172839,92.34567901234567,0)" xlink:href="#L"/><use transform="matrix(0.06172839506172839,0,0,0.06172839506172839,104.69135802469135,0)" xlink:href="#E"/><use transform="matrix(0.06172839506172839,0,0,0.06172839506172839,117.03703703703704,0)" xlink:href="#M"/><use transform="matrix(0.06172839506172839,0,0,0.06172839506172839,129.3827160493827,0)" xlink:href="#K"/></g><path fill="#333" d="M212-179c-10-28-35-45-73-45-59 0-87 40-87 99 0 60 29 101 89 101 43 0 62-24 78-52l27 14C228-24 195 4 139 4 59 4 22-46 18-125c-6-104 99-153 187-111 19 9 31 26 39 46" id="N"/><path fill="#333" d="M24 0v-261h32V0H24" id="O"/><path fill="#333" d="M100-194c63 0 86 42 84 106H49c0 40 14 67 53 68 26 1 43-12 49-29l28 8c-11 28-37 45-77 45C44 4 14-33 15-96c1-61 26-98 85-98zm52 81c6-60-76-77-97-28-3 7-6 17-6 28h103" id="P"/><g id="b"><use transform="matrix(0.06172839506172839,0,0,0.06172839506172839,0,0)" xlink:href="#N"/><use transform="matrix(0.06172839506172839,0,0,0.06172839506172839,15.987654320987653,0)" xlink:href="#O"/><use transform="matrix(0.06172839506172839,0,0,0.06172839506172839,20.864197530864196,0)" xlink:href="#G"/><use transform="matrix(0.06172839506172839,0,0,0.06172839506172839,25.74074074074074,0)" xlink:href="#P"/><use transform="matrix(0.06172839506172839,0,0,0.06172839506172839,38.08641975308642,0)" xlink:href="#H"/><use transform="matrix(0.06172839506172839,0,0,0.06172839506172839,50.432098765432094,0)" xlink:href="#J"/><use transform="matrix(0.06172839506172839,0,0,0.06172839506172839,56.60493827160494,0)" xlink:href="#P"/></g><path fill="#333" d="M63-220v92h138v28H63V0H30v-248h175v28H63" id="Q"/><path fill="#333" d="M84 4C-5 8 30-112 23-190h32v120c0 31 7 50 39 49 72-2 45-101 50-169h31l1 190h-30c-1-10 1-25-2-33-11 22-28 36-60 37" id="R"/><path fill="#333" d="M96-169c-40 0-48 33-48 73s9 75 48 75c24 0 41-14 43-38l32 2c-6 37-31 61-74 61-59 0-76-41-82-99-10-93 101-131 147-64 4 7 5 14 7 22l-32 3c-4-21-16-35-41-35" id="S"/><path fill="#333" d="M141-36C126-15 110 5 73 4 37 3 15-17 15-53c-1-64 63-63 125-63 3-35-9-54-41-54-24 1-41 7-42 31l-33-3c5-37 33-52 76-52 45 0 72 20 72 64v82c-1 20 7 32 28 27v20c-31 9-61-2-59-35zM48-53c0 20 12 33 32 33 41-3 63-29 60-74-43 2-92-5-92 41zm25-158c8-23 27-35 38-54h36v5l-58 49H73" id="T"/><g id="c"><use transform="matrix(0.06172839506172839,0,0,0.06172839506172839,0,0)" xlink:href="#Q"/><use transform="matrix(0.06172839506172839,0,0,0.06172839506172839,13.518518518518517,0)" xlink:href="#R"/><use transform="matrix(0.06172839506172839,0,0,0.06172839506172839,25.864197530864196,0)" xlink:href="#H"/><use transform="matrix(0.06172839506172839,0,0,0.06172839506172839,38.20987654320987,0)" xlink:href="#S"/><use transform="matrix(0.06172839506172839,0,0,0.06172839506172839,49.32098765432099,0)" xlink:href="#G"/><use transform="matrix(0.06172839506172839,0,0,0.06172839506172839,54.19753086419753,0)" xlink:href="#M"/><use transform="matrix(0.06172839506172839,0,0,0.06172839506172839,66.54320987654322,0)" xlink:href="#H"/><use transform="matrix(0.06172839506172839,0,0,0.06172839506172839,78.8888888888889,0)" xlink:href="#T"/><use transform="matrix(0.06172839506172839,0,0,0.06172839506172839,91.23456790123458,0)" xlink:href="#K"/><use transform="matrix(0.06172839506172839,0,0,0.06172839506172839,98.58024691358027,0)" xlink:href="#G"/><use transform="matrix(0.06172839506172839,0,0,0.06172839506172839,103.45679012345681,0)" xlink:href="#M"/></g><g id="d"><use transform="matrix(0.06172839506172839,0,0,0.06172839506172839,0,0)" xlink:href="#N"/><use transform="matrix(0.06172839506172839,0,0,0.06172839506172839,15.987654320987653,0)" xlink:href="#M"/><use transform="matrix(0.06172839506172839,0,0,0.06172839506172839,28.333333333333332,0)" xlink:href="#H"/><use transform="matrix(0.06172839506172839,0,0,0.06172839506172839,40.67901234567901,0)" xlink:href="#J"/><use transform="matrix(0.06172839506172839,0,0,0.06172839506172839,46.851851851851855,0)" xlink:href="#K"/><use transform="matrix(0.06172839506172839,0,0,0.06172839506172839,54.19753086419753,0)" xlink:href="#M"/><use transform="matrix(0.06172839506172839,0,0,0.06172839506172839,66.54320987654322,0)" xlink:href="#O"/><use transform="matrix(0.06172839506172839,0,0,0.06172839506172839,71.41975308641976,0)" xlink:href="#P"/></g><g id="e"><use transform="matrix(0.06172839506172839,0,0,0.06172839506172839,0,0)" xlink:href="#E"/><use transform="matrix(0.06172839506172839,0,0,0.06172839506172839,12.345679012345679,0)" xlink:href="#P"/></g><path fill="#333" d="M30 0v-248h187v28H63v79h144v27H63v87h162V0H30" id="U"/><path fill="#333" d="M145-31C134-9 116 4 85 4 32 4 16-35 15-94c0-59 17-99 70-100 32-1 48 14 60 33 0-11-1-24 2-32h30l-1 268h-32zM93-21c41 0 51-33 51-76s-8-73-50-73c-40 0-46 35-46 75s5 74 45 74" id="V"/><g id="f"><use transform="matrix(0.06172839506172839,0,0,0.06172839506172839,0,0)" xlink:href="#U"/><use transform="matrix(0.06172839506172839,0,0,0.06172839506172839,14.814814814814813,0)" xlink:href="#I"/><use transform="matrix(0.06172839506172839,0,0,0.06172839506172839,25.925925925925924,0)" xlink:href="#J"/><use transform="matrix(0.06172839506172839,0,0,0.06172839506172839,32.098765432098766,0)" xlink:href="#M"/><use transform="matrix(0.06172839506172839,0,0,0.06172839506172839,44.44444444444444,0)" xlink:href="#V"/><use transform="matrix(0.06172839506172839,0,0,0.06172839506172839,56.79012345679012,0)" xlink:href="#R"/><use transform="matrix(0.06172839506172839,0,0,0.06172839506172839,69.1358024691358,0)" xlink:href="#P"/></g><path fill="#333" d="M137 0h-34L2-248h35l83 218 83-218h36" id="W"/><g id="g"><use transform="matrix(0.06172839506172839,0,0,0.06172839506172839,0,0)" xlink:href="#W"/><use transform="matrix(0.06172839506172839,0,0,0.06172839506172839,13.580246913580245,0)" xlink:href="#P"/><use transform="matrix(0.06172839506172839,0,0,0.06172839506172839,25.925925925925924,0)" xlink:href="#H"/><use transform="matrix(0.06172839506172839,0,0,0.06172839506172839,38.2716049382716,0)" xlink:href="#E"/><use transform="matrix(0.06172839506172839,0,0,0.06172839506172839,50.61728395061728,0)" xlink:href="#L"/><use transform="matrix(0.06172839506172839,0,0,0.06172839506172839,62.962962962962955,0)" xlink:href="#I"/></g><path d="M205 0l-28-72H64L36 0H1l101-248h38L239 0h-34zm-38-99l-47-123c-12 45-31 82-46 123h93" id="X"/><path d="M85-194c31 0 48 13 60 33l-1-100h32l1 261h-30c-2-10 0-23-3-31C134-8 116 4 85 4 32 4 16-35 15-94c0-66 23-100 70-100zm9 24c-40 0-46 34-46 75 0 40 6 74 45 74 42 0 51-32 51-76 0-42-9-74-50-73" id="Y"/><path d="M210-169c-67 3-38 105-44 169h-31v-121c0-29-5-50-35-48C34-165 62-65 56 0H25l-1-190h30c1 10-1 24 2 32 10-44 99-50 107 0 11-21 27-35 58-36 85-2 47 119 55 194h-31v-121c0-29-5-49-35-48" id="Z"/><path d="M24-231v-30h32v30H24zM24 0v-190h32V0H24" id="aa"/><path d="M135-143c-3-34-86-38-87 0 15 53 115 12 119 90S17 21 10-45l28-5c4 36 97 45 98 0-10-56-113-15-118-90-4-57 82-63 122-42 12 7 21 19 24 35" id="ab"/><path d="M141-36C126-15 110 5 73 4 37 3 15-17 15-53c-1-64 63-63 125-63 3-35-9-54-41-54-24 1-41 7-42 31l-33-3c5-37 33-52 76-52 45 0 72 20 72 64v82c-1 20 7 32 28 27v20c-31 9-61-2-59-35zM48-53c0 20 12 33 32 33 41-3 63-29 60-74-43 2-92-5-92 41zm117-205c-3 23-9 48-36 47-26-1-65-44-74 0H39c4-23 8-48 36-47s64 44 74 0h16" id="ac"/><path d="M100-194c62-1 85 37 85 99 1 63-27 99-86 99S16-35 15-95c0-66 28-99 85-99zM99-20c44 1 53-31 53-75 0-43-8-75-51-75s-53 32-53 75 10 74 51 75" id="ad"/><g id="h"><use transform="matrix(0.05,0,0,0.05,0,0)" xlink:href="#X"/><use transform="matrix(0.05,0,0,0.05,12,0)" xlink:href="#Y"/><use transform="matrix(0.05,0,0,0.05,22,0)" xlink:href="#Z"/><use transform="matrix(0.05,0,0,0.05,36.95,0)" xlink:href="#aa"/><use transform="matrix(0.05,0,0,0.05,40.900000000000006,0)" xlink:href="#ab"/><use transform="matrix(0.05,0,0,0.05,49.900000000000006,0)" xlink:href="#ab"/><use transform="matrix(0.05,0,0,0.05,58.900000000000006,0)" xlink:href="#ac"/><use transform="matrix(0.05,0,0,0.05,68.9,0)" xlink:href="#ad"/></g><path d="M100-194c63 0 86 42 84 106H49c0 40 14 67 53 68 26 1 43-12 49-29l28 8c-11 28-37 45-77 45C44 4 14-33 15-96c1-61 26-98 85-98zm52 81c6-60-76-77-97-28-3 7-6 17-6 28h103" id="ae"/><g id="i"><use transform="matrix(0.05,0,0,0.05,0,0)" xlink:href="#Y"/><use transform="matrix(0.05,0,0,0.05,10,0)" xlink:href="#ae"/></g><path d="M63-220v92h138v28H63V0H30v-248h175v28H63" id="af"/><path d="M84 4C-5 8 30-112 23-190h32v120c0 31 7 50 39 49 72-2 45-101 50-169h31l1 190h-30c-1-10 1-25-2-33-11 22-28 36-60 37" id="ag"/><path d="M117-194c89-4 53 116 60 194h-32v-121c0-31-8-49-39-48C34-167 62-67 57 0H25l-1-190h30c1 10-1 24 2 32 11-22 29-35 61-36" id="ah"/><path d="M96-169c-40 0-48 33-48 73s9 75 48 75c24 0 41-14 43-38l32 2c-6 37-31 61-74 61-59 0-76-41-82-99-10-93 101-131 147-64 4 7 5 14 7 22l-32 3c-4-21-16-35-41-35" id="ai"/><path d="M141-36C126-15 110 5 73 4 37 3 15-17 15-53c-1-64 63-63 125-63 3-35-9-54-41-54-24 1-41 7-42 31l-33-3c5-37 33-52 76-52 45 0 72 20 72 64v82c-1 20 7 32 28 27v20c-31 9-61-2-59-35zM48-53c0 20 12 33 32 33 41-3 63-29 60-74-43 2-92-5-92 41zm25-158c8-23 27-35 38-54h36v5l-58 49H73" id="aj"/><path d="M114-163C36-179 61-72 57 0H25l-1-190h30c1 12-1 29 2 39 6-27 23-49 58-41v29" id="ak"/><g id="j"><use transform="matrix(0.05,0,0,0.05,0,0)" xlink:href="#af"/><use transform="matrix(0.05,0,0,0.05,10.950000000000001,0)" xlink:href="#ag"/><use transform="matrix(0.05,0,0,0.05,20.950000000000003,0)" xlink:href="#ah"/><use transform="matrix(0.05,0,0,0.05,30.950000000000003,0)" xlink:href="#ai"/><use transform="matrix(0.05,0,0,0.05,39.95,0)" xlink:href="#aa"/><use transform="matrix(0.05,0,0,0.05,43.900000000000006,0)" xlink:href="#ad"/><use transform="matrix(0.05,0,0,0.05,53.900000000000006,0)" xlink:href="#ah"/><use transform="matrix(0.05,0,0,0.05,63.900000000000006,0)" xlink:href="#aj"/><use transform="matrix(0.05,0,0,0.05,73.9,0)" xlink:href="#ak"/><use transform="matrix(0.05,0,0,0.05,79.85000000000001,0)" xlink:href="#aa"/><use transform="matrix(0.05,0,0,0.05,83.80000000000001,0)" xlink:href="#ad"/><use transform="matrix(0.05,0,0,0.05,93.80000000000001,0)" xlink:href="#ab"/></g><path d="M212-179c-10-28-35-45-73-45-59 0-87 40-87 99 0 60 29 101 89 101 43 0 62-24 78-52l27 14C228-24 195 4 139 4 59 4 22-46 18-125c-6-104 99-153 187-111 19 9 31 26 39 46" id="al"/><path d="M59-47c-2 24 18 29 38 22v24C64 9 27 4 27-40v-127H5v-23h24l9-43h21v43h35v23H59v120" id="am"/><path d="M24 0v-261h32V0H24" id="an"/><g id="k"><use transform="matrix(0.05,0,0,0.05,0,0)" xlink:href="#al"/><use transform="matrix(0.05,0,0,0.05,12.950000000000001,0)" xlink:href="#ad"/><use transform="matrix(0.05,0,0,0.05,22.950000000000003,0)" xlink:href="#ah"/><use transform="matrix(0.05,0,0,0.05,32.95,0)" xlink:href="#am"/><use transform="matrix(0.05,0,0,0.05,37.95,0)" xlink:href="#ak"/><use transform="matrix(0.05,0,0,0.05,43.900000000000006,0)" xlink:href="#ad"/><use transform="matrix(0.05,0,0,0.05,53.900000000000006,0)" xlink:href="#an"/><use transform="matrix(0.05,0,0,0.05,57.85,0)" xlink:href="#ae"/></g><path d="M137 0h-34L2-248h35l83 218 83-218h36" id="ao"/><path d="M141-36C126-15 110 5 73 4 37 3 15-17 15-53c-1-64 63-63 125-63 3-35-9-54-41-54-24 1-41 7-42 31l-33-3c5-37 33-52 76-52 45 0 72 20 72 64v82c-1 20 7 32 28 27v20c-31 9-61-2-59-35zM48-53c0 20 12 33 32 33 41-3 63-29 60-74-43 2-92-5-92 41" id="ap"/><g id="l"><use transform="matrix(0.05,0,0,0.05,0,0)" xlink:href="#ao"/><use transform="matrix(0.05,0,0,0.05,11,0)" xlink:href="#ae"/><use transform="matrix(0.05,0,0,0.05,21,0)" xlink:href="#ah"/><use transform="matrix(0.05,0,0,0.05,31,0)" xlink:href="#Y"/><use transform="matrix(0.05,0,0,0.05,41,0)" xlink:href="#ap"/><use transform="matrix(0.05,0,0,0.05,51,0)" xlink:href="#ab"/></g><path d="M30 0v-248h187v28H63v79h144v27H63v87h162V0H30" id="aq"/><path d="M145-31C134-9 116 4 85 4 32 4 16-35 15-94c0-59 17-99 70-100 32-1 48 14 60 33 0-11-1-24 2-32h30l-1 268h-32zM93-21c41 0 51-33 51-76s-8-73-50-73c-40 0-46 35-46 75s5 74 45 74" id="ar"/><g id="m"><use transform="matrix(0.05,0,0,0.05,0,0)" xlink:href="#aq"/><use transform="matrix(0.05,0,0,0.05,12,0)" xlink:href="#ab"/><use transform="matrix(0.05,0,0,0.05,21,0)" xlink:href="#am"/><use transform="matrix(0.05,0,0,0.05,26,0)" xlink:href="#ad"/><use transform="matrix(0.05,0,0,0.05,36,0)" xlink:href="#ar"/><use transform="matrix(0.05,0,0,0.05,46,0)" xlink:href="#ag"/><use transform="matrix(0.05,0,0,0.05,56,0)" xlink:href="#ae"/></g><path d="M33 0v-248h34V0H33" id="as"/><path d="M101-234c-31-9-42 10-38 44h38v23H63V0H32v-167H5v-23h27c-7-52 17-82 69-68v24" id="at"/><path d="M96-169c-40 0-48 33-48 73s9 75 48 75c24 0 41-14 43-38l32 2c-6 37-31 61-74 61-59 0-76-41-82-99-10-93 101-131 147-64 4 7 5 14 7 22l-32 3c-4-21-16-35-41-35zm3 187c19-1 33 8 33 26 0 31-30 33-64 32V58c18 2 39 4 41-13 1-15-18-13-34-13L87 0h19" id="au"/><path d="M100-194c62-1 85 37 85 99 1 63-27 99-86 99S16-35 15-95c0-66 28-99 85-99zM99-20c44 1 53-31 53-75 0-43-8-75-51-75s-53 32-53 75 10 74 51 75zm66-238c-3 23-9 48-36 47-26-1-65-44-74 0H39c4-23 8-48 36-47s64 44 74 0h16" id="av"/><g id="n"><use transform="matrix(0.05,0,0,0.05,0,0)" xlink:href="#as"/><use transform="matrix(0.05,0,0,0.05,5,0)" xlink:href="#ah"/><use transform="matrix(0.05,0,0,0.05,15,0)" xlink:href="#at"/><use transform="matrix(0.05,0,0,0.05,20,0)" xlink:href="#ad"/><use transform="matrix(0.05,0,0,0.05,30,0)" xlink:href="#ak"/><use transform="matrix(0.05,0,0,0.05,35.95,0)" xlink:href="#Z"/><use transform="matrix(0.05,0,0,0.05,50.900000000000006,0)" xlink:href="#ap"/><use transform="matrix(0.05,0,0,0.05,60.900000000000006,0)" xlink:href="#au"/><use transform="matrix(0.05,0,0,0.05,69.9,0)" xlink:href="#av"/><use transform="matrix(0.05,0,0,0.05,79.9,0)" xlink:href="#ae"/><use transform="matrix(0.05,0,0,0.05,89.9,0)" xlink:href="#ab"/></g><path d="M30-248c118-7 216 8 213 122C240-48 200 0 122 0H30v-248zM63-27c89 8 146-16 146-99s-60-101-146-95v194" id="aw"/><path d="M115-194c55 1 70 41 70 98S169 2 115 4C84 4 66-9 55-30l1 105H24l-1-265h31l2 30c10-21 28-34 59-34zm-8 174c40 0 45-34 45-75s-6-73-45-74c-42 0-51 32-51 76 0 43 10 73 51 73" id="ax"/><g id="o"><use transform="matrix(0.05,0,0,0.05,0,0)" xlink:href="#aw"/><use transform="matrix(0.05,0,0,0.05,12.950000000000001,0)" xlink:href="#ae"/><use transform="matrix(0.05,0,0,0.05,22.950000000000003,0)" xlink:href="#ax"/><use transform="matrix(0.05,0,0,0.05,32.95,0)" xlink:href="#ap"/><use transform="matrix(0.05,0,0,0.05,42.95,0)" xlink:href="#ak"/><use transform="matrix(0.05,0,0,0.05,48.900000000000006,0)" xlink:href="#am"/><use transform="matrix(0.05,0,0,0.05,53.900000000000006,0)" xlink:href="#ap"/><use transform="matrix(0.05,0,0,0.05,63.900000000000006,0)" xlink:href="#Z"/><use transform="matrix(0.05,0,0,0.05,78.85000000000001,0)" xlink:href="#ae"/><use transform="matrix(0.05,0,0,0.05,88.85000000000001,0)" xlink:href="#ah"/><use transform="matrix(0.05,0,0,0.05,98.85000000000001,0)" xlink:href="#am"/><use transform="matrix(0.05,0,0,0.05,103.85000000000001,0)" xlink:href="#ad"/></g><g id="p"><use transform="matrix(0.05,0,0,0.05,0,0)" xlink:href="#Y"/><use transform="matrix(0.05,0,0,0.05,10,0)" xlink:href="#ae"/></g><path d="M30-248c87 1 191-15 191 75 0 78-77 80-158 76V0H30v-248zm33 125c57 0 124 11 124-50 0-59-68-47-124-48v98" id="ay"/><g id="q"><use transform="matrix(0.05,0,0,0.05,0,0)" xlink:href="#ay"/><use transform="matrix(0.05,0,0,0.05,12,0)" xlink:href="#ak"/><use transform="matrix(0.05,0,0,0.05,17.95,0)" xlink:href="#ad"/><use transform="matrix(0.05,0,0,0.05,27.950000000000003,0)" xlink:href="#Y"/><use transform="matrix(0.05,0,0,0.05,37.95,0)" xlink:href="#ag"/><use transform="matrix(0.05,0,0,0.05,47.95,0)" xlink:href="#am"/><use transform="matrix(0.05,0,0,0.05,52.95,0)" xlink:href="#ad"/><use transform="matrix(0.05,0,0,0.05,62.95,0)" xlink:href="#ab"/></g><path d="M34 0v-190h32V0H34zM24-211c8-23 27-35 38-54h36v5l-58 49H24" id="az"/><path d="M108 0H70L1-190h34L89-25l56-165h34" id="aA"/><g id="r"><use transform="matrix(0.05,0,0,0.05,0,0)" xlink:href="#ay"/><use transform="matrix(0.05,0,0,0.05,12,0)" xlink:href="#ae"/><use transform="matrix(0.05,0,0,0.05,22,0)" xlink:href="#ak"/><use transform="matrix(0.05,0,0,0.05,27.950000000000003,0)" xlink:href="#ae"/><use transform="matrix(0.05,0,0,0.05,37.95,0)" xlink:href="#ai"/><use transform="matrix(0.05,0,0,0.05,46.95,0)" xlink:href="#az"/><use transform="matrix(0.05,0,0,0.05,51.95,0)" xlink:href="#aA"/><use transform="matrix(0.05,0,0,0.05,60.95,0)" xlink:href="#ae"/><use transform="matrix(0.05,0,0,0.05,70.95,0)" xlink:href="#aa"/><use transform="matrix(0.05,0,0,0.05,74.9,0)" xlink:href="#ab"/></g><path d="M233-177c-1 41-23 64-60 70L243 0h-38l-65-103H63V0H30v-248c88 3 205-21 203 71zM63-129c60-2 137 13 137-47 0-61-80-42-137-45v92" id="aB"/><path d="M100-194c63 0 86 42 84 106H49c0 40 14 67 53 68 26 1 43-12 49-29l28 8c-11 28-37 45-77 45C44 4 14-33 15-96c1-61 26-98 85-98zm52 81c6-60-76-77-97-28-3 7-6 17-6 28h103zm-74-98c8-23 27-35 38-54h36v5l-58 49H78" id="aC"/><g id="s"><use transform="matrix(0.05,0,0,0.05,0,0)" xlink:href="#aB"/><use transform="matrix(0.05,0,0,0.05,12.950000000000001,0)" xlink:href="#ae"/><use transform="matrix(0.05,0,0,0.05,22.950000000000003,0)" xlink:href="#Z"/><use transform="matrix(0.05,0,0,0.05,37.900000000000006,0)" xlink:href="#aC"/><use transform="matrix(0.05,0,0,0.05,47.900000000000006,0)" xlink:href="#Y"/><use transform="matrix(0.05,0,0,0.05,57.900000000000006,0)" xlink:href="#aa"/><use transform="matrix(0.05,0,0,0.05,61.85,0)" xlink:href="#ad"/><use transform="matrix(0.05,0,0,0.05,71.85000000000001,0)" xlink:href="#ab"/></g><path d="M143 4C61 4 22-44 18-125c-5-107 100-154 193-111 17 8 29 25 37 43l-32 9c-13-25-37-40-76-40-61 0-88 39-88 99 0 61 29 100 91 101 35 0 62-11 79-27v-45h-74v-28h105v86C228-13 192 4 143 4" id="aD"/><g id="t"><use transform="matrix(0.05,0,0,0.05,0,0)" xlink:href="#aD"/><use transform="matrix(0.05,0,0,0.05,14,0)" xlink:href="#ae"/><use transform="matrix(0.05,0,0,0.05,24,0)" xlink:href="#ak"/><use transform="matrix(0.05,0,0,0.05,29.950000000000003,0)" xlink:href="#ae"/><use transform="matrix(0.05,0,0,0.05,39.95,0)" xlink:href="#ah"/><use transform="matrix(0.05,0,0,0.05,49.95,0)" xlink:href="#ai"/><use transform="matrix(0.05,0,0,0.05,58.95,0)" xlink:href="#aa"/><use transform="matrix(0.05,0,0,0.05,62.900000000000006,0)" xlink:href="#ap"/><use transform="matrix(0.05,0,0,0.05,72.9,0)" xlink:href="#Z"/><use transform="matrix(0.05,0,0,0.05,87.85000000000001,0)" xlink:href="#ae"/><use transform="matrix(0.05,0,0,0.05,97.85000000000001,0)" xlink:href="#ah"/><use transform="matrix(0.05,0,0,0.05,107.85000000000001,0)" xlink:href="#am"/><use transform="matrix(0.05,0,0,0.05,112.85000000000001,0)" xlink:href="#ad"/></g><path d="M177-190C167-65 218 103 67 71c-23-6-38-20-44-43l32-5c15 47 100 32 89-28v-30C133-14 115 1 83 1 29 1 15-40 15-95c0-56 16-97 71-98 29-1 48 16 59 35 1-10 0-23 2-32h30zM94-22c36 0 50-32 50-73 0-42-14-75-50-75-39 0-46 34-46 75s6 73 46 73" id="aE"/><g id="u"><use transform="matrix(0.05,0,0,0.05,0,0)" xlink:href="#aB"/><use transform="matrix(0.05,0,0,0.05,12.950000000000001,0)" xlink:href="#ae"/><use transform="matrix(0.05,0,0,0.05,22.950000000000003,0)" xlink:href="#aE"/><use transform="matrix(0.05,0,0,0.05,32.95,0)" xlink:href="#aa"/><use transform="matrix(0.05,0,0,0.05,36.900000000000006,0)" xlink:href="#ab"/><use transform="matrix(0.05,0,0,0.05,45.900000000000006,0)" xlink:href="#am"/><use transform="matrix(0.05,0,0,0.05,50.900000000000006,0)" xlink:href="#ak"/><use transform="matrix(0.05,0,0,0.05,56.85,0)" xlink:href="#ap"/><use transform="matrix(0.05,0,0,0.05,66.85000000000001,0)" xlink:href="#ak"/></g><path d="M141 0L90-78 38 0H4l68-98-65-92h35l48 74 47-74h35l-64 92 68 98h-35" id="aF"/><g id="v"><use transform="matrix(0.05,0,0,0.05,0,0)" xlink:href="#af"/><use transform="matrix(0.05,0,0,0.05,10.950000000000001,0)" xlink:href="#an"/><use transform="matrix(0.05,0,0,0.05,14.9,0)" xlink:href="#ag"/><use transform="matrix(0.05,0,0,0.05,24.900000000000002,0)" xlink:href="#aF"/><use transform="matrix(0.05,0,0,0.05,33.900000000000006,0)" xlink:href="#ad"/></g><path d="M190 0L58-211 59 0H30v-248h39L202-35l-2-213h31V0h-41" id="aG"/><g id="w"><use transform="matrix(0.05,0,0,0.05,0,0)" xlink:href="#aG"/><use transform="matrix(0.05,0,0,0.05,12.950000000000001,0)" xlink:href="#ad"/><use transform="matrix(0.05,0,0,0.05,22.950000000000003,0)" xlink:href="#am"/><use transform="matrix(0.05,0,0,0.05,27.950000000000003,0)" xlink:href="#ap"/><use transform="matrix(0.05,0,0,0.05,37.95,0)" xlink:href="#ab"/></g><g id="x"><use transform="matrix(0.05,0,0,0.05,0,0)" xlink:href="#af"/><use transform="matrix(0.05,0,0,0.05,10.950000000000001,0)" xlink:href="#aa"/><use transform="matrix(0.05,0,0,0.05,14.9,0)" xlink:href="#ab"/><use transform="matrix(0.05,0,0,0.05,23.900000000000002,0)" xlink:href="#ai"/><use transform="matrix(0.05,0,0,0.05,32.900000000000006,0)" xlink:href="#ap"/><use transform="matrix(0.05,0,0,0.05,42.900000000000006,0)" xlink:href="#aa"/><use transform="matrix(0.05,0,0,0.05,46.85000000000001,0)" xlink:href="#ab"/></g><path d="M197 0v-115H63V0H30v-248h33v105h134v-105h34V0h-34" id="aH"/><path d="M100-194c62-1 85 37 85 99 1 63-27 99-86 99S16-35 15-95c0-66 28-99 85-99zM99-20c44 1 53-31 53-75 0-43-8-75-51-75s-53 32-53 75 10 74 51 75zM76-211c8-23 27-35 38-54h36v5l-58 49H76" id="aI"/><g id="y"><use transform="matrix(0.05,0,0,0.05,0,0)" xlink:href="#aH"/><use transform="matrix(0.05,0,0,0.05,12.950000000000001,0)" xlink:href="#aa"/><use transform="matrix(0.05,0,0,0.05,16.900000000000002,0)" xlink:href="#ab"/><use transform="matrix(0.05,0,0,0.05,25.900000000000002,0)" xlink:href="#am"/><use transform="matrix(0.05,0,0,0.05,30.900000000000002,0)" xlink:href="#aI"/><use transform="matrix(0.05,0,0,0.05,40.900000000000006,0)" xlink:href="#ak"/><use transform="matrix(0.05,0,0,0.05,46.85000000000001,0)" xlink:href="#aa"/><use transform="matrix(0.05,0,0,0.05,50.80000000000001,0)" xlink:href="#ai"/><use transform="matrix(0.05,0,0,0.05,59.80000000000001,0)" xlink:href="#ad"/></g><g id="z"><use transform="matrix(0.05,0,0,0.05,0,0)" xlink:href="#aG"/><use transform="matrix(0.05,0,0,0.05,12.950000000000001,0)" xlink:href="#ad"/><use transform="matrix(0.05,0,0,0.05,22.950000000000003,0)" xlink:href="#am"/><use transform="matrix(0.05,0,0,0.05,27.950000000000003,0)" xlink:href="#ap"/><use transform="matrix(0.05,0,0,0.05,37.95,0)" xlink:href="#ab"/></g><g id="A"><use transform="matrix(0.05,0,0,0.05,0,0)" xlink:href="#af"/><use transform="matrix(0.05,0,0,0.05,10.950000000000001,0)" xlink:href="#aa"/><use transform="matrix(0.05,0,0,0.05,14.9,0)" xlink:href="#ah"/><use transform="matrix(0.05,0,0,0.05,24.900000000000002,0)" xlink:href="#ap"/><use transform="matrix(0.05,0,0,0.05,34.900000000000006,0)" xlink:href="#ah"/><use transform="matrix(0.05,0,0,0.05,44.900000000000006,0)" xlink:href="#au"/><use transform="matrix(0.05,0,0,0.05,53.900000000000006,0)" xlink:href="#ap"/><use transform="matrix(0.05,0,0,0.05,63.900000000000006,0)" xlink:href="#ab"/></g><g id="B"><use transform="matrix(0.05,0,0,0.05,0,0)" xlink:href="#Y"/><use transform="matrix(0.05,0,0,0.05,10,0)" xlink:href="#ap"/></g><g id="C"><use transform="matrix(0.05,0,0,0.05,0,0)" xlink:href="#af"/><use transform="matrix(0.05,0,0,0.05,10.950000000000001,0)" xlink:href="#ap"/><use transform="matrix(0.05,0,0,0.05,20.950000000000003,0)" xlink:href="#ak"/><use transform="matrix(0.05,0,0,0.05,26.900000000000002,0)" xlink:href="#Z"/><use transform="matrix(0.05,0,0,0.05,41.85,0)" xlink:href="#aj"/><use transform="matrix(0.05,0,0,0.05,51.85,0)" xlink:href="#ai"/><use transform="matrix(0.05,0,0,0.05,60.85,0)" xlink:href="#aa"/><use transform="matrix(0.05,0,0,0.05,64.8,0)" xlink:href="#ap"/></g></defs></g></svg>